<svg width="324" height="166" viewBox="0 0 324 166" fill="none" xmlns="http://www.w3.org/2000/svg">
<g id="Group 4">
<g id="404" filter="url(#filter0_di)">
<path d="M61.8867 104.986H54.9043V119H40.8906V104.986H5.88086L13.6934 48.9805H27.707L21.6035 91.0215H40.8906V56.0117H54.9043V91.0215H61.8867V104.986ZM112.863 83.9902C112.863 76.2103 111.561 70.4323 108.957 66.6562C106.385 62.8802 102.788 60.9922 98.166 60.9922C93.5762 60.9922 90.0117 62.8639 87.4727 66.6074C84.9336 70.3509 83.6641 76.1452 83.6641 83.9902C83.6641 91.7702 84.9336 97.5482 87.4727 101.324C90.0117 105.1 93.5762 106.988 98.166 106.988C100.477 106.988 102.544 106.533 104.367 105.621C106.19 104.677 107.72 103.261 108.957 101.373C110.227 99.485 111.187 97.1087 111.838 94.2441C112.521 91.347 112.863 87.929 112.863 83.9902ZM126.193 83.9902C126.193 90.6309 125.461 96.2461 123.996 100.836C122.531 105.426 120.529 109.137 117.99 111.969C115.451 114.801 112.473 116.852 109.055 118.121C105.669 119.358 102.04 119.977 98.166 119.977C94.2923 119.977 90.6465 119.342 87.2285 118.072C83.8431 116.77 80.8809 114.703 78.3418 111.871C75.8353 109.007 73.8496 105.296 72.3848 100.738C70.9199 96.1484 70.1875 90.5658 70.1875 83.9902C70.1875 77.3496 70.9199 71.7507 72.3848 67.1934C73.8496 62.6035 75.8353 58.8926 78.3418 56.0605C80.8809 53.2285 83.8431 51.1777 87.2285 49.9082C90.6465 48.6387 94.2923 48.0039 98.166 48.0039C102.04 48.0039 105.669 48.6549 109.055 49.957C112.473 51.2266 115.451 53.2936 117.99 56.1582C120.529 59.0228 122.531 62.7337 123.996 67.291C125.461 71.8483 126.193 77.4147 126.193 83.9902ZM189.23 104.986H182.248V119H168.234V104.986H133.225L141.037 48.9805H155.051L148.947 91.0215H168.234V56.0117H182.248V91.0215H189.23V104.986Z" fill="white"/>
</g>
<g id="bomba" filter="url(#filter1_di)">
<g id="Vector 1" filter="url(#filter2_d)">
<path d="M261 81.5C237.842 78.5511 247 173.5 163 152.5" stroke="white" stroke-width="4" stroke-linecap="round" stroke-linejoin="round"/>
</g>
<g id="Ellipse 5" filter="url(#filter3_i)">
<ellipse cx="274.657" cy="49.5053" rx="32" ry="39" transform="rotate(28.2757 274.657 49.5053)" fill="#B531FF"/>
</g>
<g id="Line 2">
<line x1="285.424" y1="51.0608" x2="289.061" y2="42.5757" stroke="#36094F" stroke-width="6" stroke-linecap="round"/>
<line x1="285.424" y1="51.0608" x2="289.061" y2="42.5757" stroke="#36094F" stroke-width="6" stroke-linecap="round"/>
<line x1="285.424" y1="51.0608" x2="289.061" y2="42.5757" stroke="#36094F" stroke-width="6" stroke-linecap="round"/>
</g>
<g id="Line 1">
<line x1="270.424" y1="44.0608" x2="274.061" y2="35.5757" stroke="#36094F" stroke-width="6" stroke-linecap="round"/>
<line x1="270.424" y1="44.0608" x2="274.061" y2="35.5757" stroke="#36094F" stroke-width="6" stroke-linecap="round"/>
<line x1="270.424" y1="44.0608" x2="274.061" y2="35.5757" stroke="#36094F" stroke-width="6" stroke-linecap="round"/>
</g>
<path id="Line 3" d="M260.712 58.8662C269.447 57.7597 273.074 59.4651 276.898 67.3443" stroke="#722C99" stroke-width="6" stroke-linecap="round"/>
</g>
<g id="Not Found" filter="url(#filter4_d)">
<path d="M21.75 157H17.2529L9.15234 143.172V157H4.94824V135.994H9.44531L17.5459 149.837V135.994H21.75V157ZM40.1631 149.017C40.1631 150.188 39.9531 151.282 39.5332 152.298C39.1133 153.304 38.542 154.178 37.8193 154.92C37.0967 155.652 36.2471 156.233 35.2705 156.663C34.3037 157.083 33.2637 157.293 32.1504 157.293C31.0469 157.293 30.0068 157.083 29.0303 156.663C28.0635 156.233 27.2139 155.652 26.4814 154.92C25.7588 154.178 25.1875 153.304 24.7676 152.298C24.3477 151.282 24.1377 150.188 24.1377 149.017C24.1377 147.825 24.3477 146.722 24.7676 145.706C25.1875 144.69 25.7588 143.816 26.4814 143.084C27.2139 142.342 28.0635 141.761 29.0303 141.341C30.0068 140.921 31.0469 140.711 32.1504 140.711C33.2637 140.711 34.3037 140.911 35.2705 141.312C36.2471 141.702 37.0967 142.264 37.8193 142.996C38.542 143.719 39.1133 144.593 39.5332 145.618C39.9531 146.634 40.1631 147.767 40.1631 149.017ZM36.1348 149.017C36.1348 148.372 36.0273 147.791 35.8125 147.273C35.6074 146.746 35.3242 146.297 34.9629 145.926C34.6016 145.545 34.1768 145.257 33.6885 145.062C33.21 144.856 32.6973 144.754 32.1504 144.754C31.6035 144.754 31.0859 144.856 30.5977 145.062C30.1191 145.257 29.6992 145.545 29.3379 145.926C28.9863 146.297 28.708 146.746 28.5029 147.273C28.2979 147.791 28.1953 148.372 28.1953 149.017C28.1953 149.622 28.2979 150.184 28.5029 150.701C28.708 151.219 28.9863 151.668 29.3379 152.049C29.6992 152.43 30.1191 152.732 30.5977 152.957C31.0859 153.172 31.6035 153.279 32.1504 153.279C32.6973 153.279 33.21 153.177 33.6885 152.972C34.1768 152.767 34.6016 152.479 34.9629 152.107C35.3242 151.736 35.6074 151.287 35.8125 150.76C36.0273 150.232 36.1348 149.651 36.1348 149.017ZM50.124 157C49.1572 157 48.249 156.819 47.3994 156.458C46.5498 156.087 45.8027 155.584 45.1582 154.949C44.5234 154.305 44.0205 153.558 43.6494 152.708C43.2881 151.858 43.1074 150.95 43.1074 149.983V145.325H41.1592V141.341H43.1074V135.071H47.0918V141.341H53.1562V145.325H47.0918V149.983C47.0918 150.403 47.1699 150.799 47.3262 151.17C47.4824 151.531 47.6973 151.849 47.9707 152.122C48.2441 152.396 48.5664 152.615 48.9375 152.781C49.3086 152.938 49.7041 153.016 50.124 153.016H53.1562V157H50.124ZM68.4492 157H64.2451V135.994H78.9521V140.198H68.4492V144.402H74.748V148.606H68.4492V157ZM94.0107 149.017C94.0107 150.188 93.8008 151.282 93.3809 152.298C92.9609 153.304 92.3896 154.178 91.667 154.92C90.9443 155.652 90.0947 156.233 89.1182 156.663C88.1514 157.083 87.1113 157.293 85.998 157.293C84.8945 157.293 83.8545 157.083 82.8779 156.663C81.9111 156.233 81.0615 155.652 80.3291 154.92C79.6064 154.178 79.0352 153.304 78.6152 152.298C78.1953 151.282 77.9854 150.188 77.9854 149.017C77.9854 147.825 78.1953 146.722 78.6152 145.706C79.0352 144.69 79.6064 143.816 80.3291 143.084C81.0615 142.342 81.9111 141.761 82.8779 141.341C83.8545 140.921 84.8945 140.711 85.998 140.711C87.1113 140.711 88.1514 140.911 89.1182 141.312C90.0947 141.702 90.9443 142.264 91.667 142.996C92.3896 143.719 92.9609 144.593 93.3809 145.618C93.8008 146.634 94.0107 147.767 94.0107 149.017ZM89.9824 149.017C89.9824 148.372 89.875 147.791 89.6602 147.273C89.4551 146.746 89.1719 146.297 88.8105 145.926C88.4492 145.545 88.0244 145.257 87.5361 145.062C87.0576 144.856 86.5449 144.754 85.998 144.754C85.4512 144.754 84.9336 144.856 84.4453 145.062C83.9668 145.257 83.5469 145.545 83.1855 145.926C82.834 146.297 82.5557 146.746 82.3506 147.273C82.1455 147.791 82.043 148.372 82.043 149.017C82.043 149.622 82.1455 150.184 82.3506 150.701C82.5557 151.219 82.834 151.668 83.1855 152.049C83.5469 152.43 83.9668 152.732 84.4453 152.957C84.9336 153.172 85.4512 153.279 85.998 153.279C86.5449 153.279 87.0576 153.177 87.5361 152.972C88.0244 152.767 88.4492 152.479 88.8105 152.107C89.1719 151.736 89.4551 151.287 89.6602 150.76C89.875 150.232 89.9824 149.651 89.9824 149.017ZM107.751 155.169C107.429 155.462 107.082 155.74 106.711 156.004C106.35 156.258 105.969 156.482 105.568 156.678C105.168 156.863 104.753 157.01 104.323 157.117C103.903 157.234 103.474 157.293 103.034 157.293C102.067 157.293 101.159 157.122 100.31 156.78C99.46 156.438 98.7129 155.955 98.0684 155.33C97.4336 154.695 96.9307 153.929 96.5596 153.03C96.1982 152.122 96.0176 151.106 96.0176 149.983V141.312H100.002V149.983C100.002 150.511 100.08 150.984 100.236 151.404C100.402 151.814 100.622 152.161 100.896 152.444C101.169 152.728 101.486 152.942 101.848 153.089C102.219 153.235 102.614 153.309 103.034 153.309C103.444 153.309 103.83 153.216 104.191 153.03C104.562 152.835 104.885 152.581 105.158 152.269C105.432 151.956 105.646 151.604 105.803 151.214C105.959 150.813 106.037 150.403 106.037 149.983V141.312H110.036V157H109.069L107.751 155.169ZM117.097 157H113.098V141.312H114.064L115.383 142.835C116.027 142.249 116.755 141.8 117.565 141.487C118.386 141.165 119.24 141.004 120.129 141.004C121.086 141.004 121.989 141.189 122.839 141.561C123.688 141.922 124.431 142.425 125.065 143.069C125.7 143.704 126.198 144.451 126.56 145.311C126.931 146.16 127.116 147.068 127.116 148.035V157H123.117V148.035C123.117 147.625 123.039 147.239 122.883 146.878C122.727 146.507 122.512 146.185 122.238 145.911C121.965 145.638 121.647 145.423 121.286 145.267C120.925 145.11 120.539 145.032 120.129 145.032C119.709 145.032 119.313 145.11 118.942 145.267C118.571 145.423 118.249 145.638 117.976 145.911C117.702 146.185 117.487 146.507 117.331 146.878C117.175 147.239 117.097 147.625 117.097 148.035V157ZM145.134 157H144.167L142.614 154.847C142.233 155.188 141.828 155.511 141.398 155.813C140.979 156.106 140.534 156.365 140.065 156.59C139.597 156.805 139.113 156.976 138.615 157.103C138.127 157.229 137.629 157.293 137.121 157.293C136.018 157.293 134.978 157.088 134.001 156.678C133.034 156.258 132.185 155.682 131.452 154.949C130.729 154.207 130.158 153.333 129.738 152.327C129.318 151.312 129.108 150.208 129.108 149.017C129.108 147.835 129.318 146.736 129.738 145.721C130.158 144.705 130.729 143.826 131.452 143.084C132.185 142.342 133.034 141.761 134.001 141.341C134.978 140.921 136.018 140.711 137.121 140.711C137.473 140.711 137.834 140.74 138.205 140.799C138.586 140.857 138.952 140.955 139.304 141.092C139.665 141.219 140.002 141.39 140.314 141.604C140.627 141.819 140.891 142.083 141.105 142.396V135.071H145.134V157ZM141.105 149.017C141.105 148.47 140.998 147.942 140.783 147.435C140.578 146.917 140.295 146.463 139.934 146.072C139.572 145.672 139.147 145.354 138.659 145.12C138.181 144.876 137.668 144.754 137.121 144.754C136.574 144.754 136.057 144.852 135.568 145.047C135.09 145.242 134.67 145.525 134.309 145.896C133.957 146.258 133.679 146.702 133.474 147.229C133.269 147.757 133.166 148.353 133.166 149.017C133.166 149.593 133.269 150.14 133.474 150.657C133.679 151.175 133.957 151.629 134.309 152.02C134.67 152.41 135.09 152.718 135.568 152.942C136.057 153.167 136.574 153.279 137.121 153.279C137.668 153.279 138.181 153.162 138.659 152.928C139.147 152.684 139.572 152.366 139.934 151.976C140.295 151.575 140.578 151.121 140.783 150.613C140.998 150.096 141.105 149.563 141.105 149.017Z" fill="white"/>
</g>
</g>
<defs>
<filter id="filter0_di" x="1.88086" y="48.0039" width="191.35" height="79.9727" filterUnits="userSpaceOnUse" color-interpolation-filters="sRGB">
<feFlood flood-opacity="0" result="BackgroundImageFix"/>
<feColorMatrix in="SourceAlpha" type="matrix" values="0 0 0 0 0 0 0 0 0 0 0 0 0 0 0 0 0 0 127 0"/>
<feOffset dy="4"/>
<feGaussianBlur stdDeviation="2"/>
<feColorMatrix type="matrix" values="0 0 0 0 0 0 0 0 0 0 0 0 0 0 0 0 0 0 0.25 0"/>
<feBlend mode="normal" in2="BackgroundImageFix" result="effect1_dropShadow"/>
<feBlend mode="normal" in="SourceGraphic" in2="effect1_dropShadow" result="shape"/>
<feColorMatrix in="SourceAlpha" type="matrix" values="0 0 0 0 0 0 0 0 0 0 0 0 0 0 0 0 0 0 127 0" result="hardAlpha"/>
<feOffset dx="-1"/>
<feGaussianBlur stdDeviation="0.5"/>
<feComposite in2="hardAlpha" operator="arithmetic" k2="-1" k3="1"/>
<feColorMatrix type="matrix" values="0 0 0 0 0 0 0 0 0 0 0 0 0 0 0 0 0 0 0.25 0"/>
<feBlend mode="normal" in2="shape" result="effect2_innerShadow"/>
</filter>
<filter id="filter1_di" x="159" y="0" width="164.314" height="161.535" filterUnits="userSpaceOnUse" color-interpolation-filters="sRGB">
<feFlood flood-opacity="0" result="BackgroundImageFix"/>
<feColorMatrix in="SourceAlpha" type="matrix" values="0 0 0 0 0 0 0 0 0 0 0 0 0 0 0 0 0 0 127 0"/>
<feOffset dy="2"/>
<feGaussianBlur stdDeviation="1"/>
<feColorMatrix type="matrix" values="0 0 0 0 0 0 0 0 0 0 0 0 0 0 0 0 0 0 0.25 0"/>
<feBlend mode="normal" in2="BackgroundImageFix" result="effect1_dropShadow"/>
<feBlend mode="normal" in="SourceGraphic" in2="effect1_dropShadow" result="shape"/>
<feColorMatrix in="SourceAlpha" type="matrix" values="0 0 0 0 0 0 0 0 0 0 0 0 0 0 0 0 0 0 127 0" result="hardAlpha"/>
<feOffset dx="1" dy="2"/>
<feGaussianBlur stdDeviation="2"/>
<feComposite in2="hardAlpha" operator="arithmetic" k2="-1" k3="1"/>
<feColorMatrix type="matrix" values="0 0 0 0 0 0 0 0 0 0 0 0 0 0 0 0 0 0 0.25 0"/>
<feBlend mode="normal" in2="shape" result="effect2_innerShadow"/>
</filter>
<filter id="filter2_d" x="160" y="79.4321" width="104.001" height="81.1031" filterUnits="userSpaceOnUse" color-interpolation-filters="sRGB">
<feFlood flood-opacity="0" result="BackgroundImageFix"/>
<feColorMatrix in="SourceAlpha" type="matrix" values="0 0 0 0 0 0 0 0 0 0 0 0 0 0 0 0 0 0 127 0"/>
<feOffset dy="2"/>
<feGaussianBlur stdDeviation="0.5"/>
<feColorMatrix type="matrix" values="0 0 0 0 0 0 0 0 0 0 0 0 0 0 0 0 0 0 0.25 0"/>
<feBlend mode="normal" in2="BackgroundImageFix" result="effect1_dropShadow"/>
<feBlend mode="normal" in="SourceGraphic" in2="effect1_dropShadow" result="shape"/>
</filter>
<filter id="filter3_i" x="228" y="0" width="101.313" height="103.011" filterUnits="userSpaceOnUse" color-interpolation-filters="sRGB">
<feFlood flood-opacity="0" result="BackgroundImageFix"/>
<feBlend mode="normal" in="SourceGraphic" in2="BackgroundImageFix" result="shape"/>
<feColorMatrix in="SourceAlpha" type="matrix" values="0 0 0 0 0 0 0 0 0 0 0 0 0 0 0 0 0 0 127 0" result="hardAlpha"/>
<feOffset dx="8" dy="4"/>
<feGaussianBlur stdDeviation="8"/>
<feComposite in2="hardAlpha" operator="arithmetic" k2="-1" k3="1"/>
<feColorMatrix type="matrix" values="0 0 0 0 0 0 0 0 0 0 0 0 0 0 0 0 0 0 0.25 0"/>
<feBlend mode="normal" in2="shape" result="effect1_innerShadow"/>
</filter>
<filter id="filter4_d" x="0.948242" y="135.071" width="148.186" height="30.2217" filterUnits="userSpaceOnUse" color-interpolation-filters="sRGB">
<feFlood flood-opacity="0" result="BackgroundImageFix"/>
<feColorMatrix in="SourceAlpha" type="matrix" values="0 0 0 0 0 0 0 0 0 0 0 0 0 0 0 0 0 0 127 0"/>
<feOffset dy="4"/>
<feGaussianBlur stdDeviation="2"/>
<feColorMatrix type="matrix" values="0 0 0 0 0 0 0 0 0 0 0 0 0 0 0 0 0 0 0.25 0"/>
<feBlend mode="normal" in2="BackgroundImageFix" result="effect1_dropShadow"/>
<feBlend mode="normal" in="SourceGraphic" in2="effect1_dropShadow" result="shape"/>
</filter>
</defs>
</svg>
